<?xml version="1.0" encoding="UTF-8"?>
<svg version="1.1" xmlns="http://www.w3.org/2000/svg" width="500" height="485">
<path d="M0 0 C44.25828736 -2.49432544 93.81270104 27.10644677 125.875 55.1875 C130.48884627 59.42454882 134.93343938 63.83386245 139.375 68.25 C140.06577637 68.93602295 140.75655273 69.6220459 141.46826172 70.32885742 C151 79.89212681 151 79.89212681 151 83 C151.66 83 152.32 83 153 83 C154.32177734 84.50268555 154.32177734 84.50268555 155.8359375 86.63671875 C156.39966064 87.43070068 156.96338379 88.22468262 157.54418945 89.04272461 C158.14835693 89.91550049 158.75252441 90.78827637 159.375 91.6875 C159.99914795 92.58799072 160.6232959 93.48848145 161.26635742 94.41625977 C175.78288534 115.66727838 186.67669782 138.32566139 194 163 C194.29148926 163.97815674 194.29148926 163.97815674 194.58886719 164.97607422 C197.80377027 176.04308351 199.3082701 187.25086408 200.67456055 198.66674805 C200.96617816 201.00391439 200.96617816 201.00391439 201.5234375 203.28295898 C202.16173717 206.92211727 202.20137392 210.52731051 202.23828125 214.2109375 C202.24789383 215.00811691 202.25750641 215.80529633 202.26741028 216.62663269 C202.29214204 219.2094652 202.30467753 221.79206277 202.3125 224.375 C202.31578308 225.25082733 202.31906616 226.12665466 202.32244873 227.02902222 C202.34191678 243.05030644 201.47889539 258.77261957 196 274 C195.34 274 194.68 274 194 274 C193.74943848 273.36199463 193.49887695 272.72398926 193.24072266 272.06665039 C184.63441566 250.33231003 174.85478995 229.59918361 157.3984375 213.48828125 C156 212 156 212 156 210 C155.41863281 209.7421875 154.83726562 209.484375 154.23828125 209.21875 C151.81240694 207.89785509 150.17538134 206.4133848 148.1875 204.5 C123.23534834 181.99413771 88.77828233 171.00039779 56 167 C55.30495361 166.9064624 54.60990723 166.8129248 53.89379883 166.71655273 C45.03303829 165.65540097 36.09901771 165.71286152 27.1875 165.6875 C26.26715973 165.68454926 25.34681946 165.68159851 24.39859009 165.67855835 C-0.49150008 165.66078975 -25.22072615 167.85401085 -50 170 C-130.30727386 176.94366871 -130.30727386 176.94366871 -157 159 C-157.65355469 158.56300781 -158.30710937 158.12601563 -158.98046875 157.67578125 C-171.03075162 148.49330025 -177.5210036 132.5496412 -179.71484375 118.0234375 C-181.62523724 97.76803254 -178.01870081 80.29050977 -164.90625 64.1875 C-142.20799178 38.14031844 -104.26730163 24.83019711 -70.4140625 22.24609375 C-28.85088433 19.99743191 10.76477 25.94429428 50.77734375 36.86621094 C51.80730469 37.14625977 52.83726562 37.42630859 53.8984375 37.71484375 C54.79224121 37.96355225 55.68604492 38.21226074 56.60693359 38.46850586 C59.2422456 39.14454297 59.2422456 39.14454297 63 39 C62.2879541 38.59386475 61.5759082 38.18772949 60.84228516 37.76928711 C57.43615601 35.82600137 54.0304309 33.88200901 50.625 31.9375 C50.00096283 31.581185 49.37692566 31.22487 48.73397827 30.85775757 C38.34386382 24.92374931 27.97240492 18.95819766 17.61767578 12.96264648 C11.77601756 9.58421925 5.91323252 6.25167383 0 3 C0 2.01 0 1.02 0 0 Z " fill="#2C3849" transform="translate(270,19)"/>
<path d="M0 0 C2.64656261 1.27603424 5.10661128 2.66274877 7.5546875 4.28515625 C39.43582432 24.92492407 75.11713506 31.21552165 112.5 31.4375 C113.57739441 31.44433807 114.65478882 31.45117615 115.76483154 31.45822144 C139.45982095 31.53029403 163.01044029 29.85809998 186.625 28.0625 C187.99952835 27.95803118 187.99952835 27.95803118 189.40182495 27.85145187 C211.24312771 26.21330244 211.24312771 26.21330244 233.050354 24.18638611 C257.22624193 21.87517183 283.57203729 25.67792012 303.25 40.8125 C319.30429332 54.4304389 327.35212935 71.44178663 329.75 92.23046875 C331.1862079 113.88579098 322.92136687 131.55254174 309.734375 148.1640625 C309.16203125 148.76992188 308.5896875 149.37578125 308 150 C307.34 150 306.68 150 306 150 C305.67 150.99 305.34 151.98 305 153 C303.15987244 154.64956419 301.34352325 156.14359605 299.375 157.625 C298.79669434 158.06303955 298.21838867 158.5010791 297.62255859 158.95239258 C273.79679137 176.65126085 245.41580607 187.01125581 216.23510742 191.60644531 C213.98381498 192.00284984 211.79285574 192.52573121 209.57421875 193.07421875 C196.32432986 196.08096868 181.90274577 194.66528153 169.06201172 190.6328125 C166.84639351 189.95285958 164.61786756 189.34841078 162.37890625 188.75 C138.52367071 182.21670432 115.13727342 171.41169637 95 157 C94.03964844 156.31421875 93.07929687 155.6284375 92.08984375 154.921875 C74.62586229 142.12876078 58.07600726 127.32083051 45 110 C43.83984375 108.47246094 43.83984375 108.47246094 42.65625 106.9140625 C22.71736079 80.10874816 9.47399687 50.33242833 1.9375 17.8125 C1.73350586 16.93489014 1.52951172 16.05728027 1.31933594 15.15307617 C0.20453711 9.99336539 -0.18868644 5.27713363 0 0 Z " fill="#638E83" transform="translate(25,271)"/>
</svg>
